<svg xmlns="http://www.w3.org/2000/svg" version="1.1" xmlns:xlink="http://www.w3.org/1999/xlink" width="1000" height="1000"><g clip-path="url(#SvgjsClipPath1033)"><rect width="1000" height="1000" fill="#ffffff"></rect><g transform="matrix(1.0294117647058822,0,0,1.0294117647058822,150.00000000000006,285.88235294117646)"><svg xmlns="http://www.w3.org/2000/svg" version="1.1" xmlns:xlink="http://www.w3.org/1999/xlink" width="680" height="416"><svg xmlns="http://www.w3.org/2000/svg" viewBox="169 304 680 416">
<path fill="#000000" d="
M451.335327,589.333862
	C430.927551,610.914612 410.763855,632.239563 390.600189,653.564575
	C390.130310,653.183655 389.660461,652.802795 389.190613,652.421936
	C414.787415,598.963623 450.496490,552.810425 492.889465,511.596954
	C535.391907,470.277069 583.499878,436.805237 636.647766,410.437317
	C632.639465,410.107330 629.125061,411.637238 625.532654,412.743896
	C621.874084,413.870972 618.225464,415.044373 614.623718,416.340118
	C558.284119,436.608246 507.995422,467.215790 462.871155,506.288239
	C432.939880,532.205322 406.352203,561.407532 381.901611,592.540649
	C376.242432,599.746460 370.697418,607.041870 365.095642,614.292847
	C364.505707,615.056458 364.041138,616.005249 362.851959,616.073975
	C362.128967,594.218872 403.809509,530.317444 439.430206,498.178467
	C423.784393,506.572296 408.752167,516.011047 393.776672,525.525757
	C378.730316,535.085571 363.775085,544.794434 348.929199,554.662537
	C333.945007,564.622559 319.065918,574.745667 304.285004,585.005127
	C289.740662,595.100281 275.377289,605.456238 260.807220,615.788025
	C259.556763,613.359070 261.209808,612.442627 261.952484,611.344238
	C285.215485,576.938293 314.317291,548.024414 346.095459,521.568481
	C398.497192,477.943207 457.367249,445.590210 520.582764,420.686859
	C537.885437,413.870605 555.426941,407.735474 572.994141,401.615021
	C554.546326,404.262970 536.318787,407.868195 518.305664,412.617401
	C467.384949,426.042786 417.558990,442.955566 367.711975,459.792969
	C308.211823,479.891022 249.306656,501.583527 191.516907,526.225647
	C187.848007,527.790100 184.196609,529.395691 180.520187,530.942078
	C180.292221,531.037964 179.915604,530.780396 179.597778,530.684143
	C178.991547,529.470398 179.957336,528.858887 180.601593,528.191040
	C207.394989,500.415314 237.885300,477.432526 271.071564,457.835175
	C330.796295,422.566193 395.178558,399.831177 462.853485,385.738586
	C499.737671,378.057770 536.968140,373.172913 574.544495,370.502899
	C585.627686,369.715363 596.746765,369.031708 607.834534,367.766357
	C600.154053,365.440643 592.196594,365.740997 584.395569,365.488129
	C539.528992,364.033875 494.850647,366.562195 450.277740,371.931610
	C411.432373,376.611053 372.873077,383.013214 334.348358,389.710083
	C333.112640,389.924896 331.816528,390.667023 330.568176,389.455536
	C330.997314,387.226715 333.155762,387.025269 334.631836,386.258057
	C392.562561,356.147827 453.814545,335.927246 518.068481,324.566345
	C556.223267,317.820129 594.623169,314.269623 633.365295,315.759796
	C675.321960,317.373627 716.555847,323.240540 755.944885,338.712646
	C764.171631,341.944153 772.178833,345.681702 779.690247,350.374268
	C789.840942,356.715637 798.453735,364.087402 796.552185,377.862274
	C816.227722,382.632446 833.100769,390.510345 838.609680,411.856842
	C842.199829,425.768402 839.156067,438.722992 832.092468,450.750641
	C830.114380,450.508179 829.987610,449.445404 829.707703,448.500397
	C828.188416,443.370056 824.693176,439.992889 820.083008,437.571198
	C810.886963,432.740570 800.888428,430.907745 790.714905,430.354523
	C726.796814,426.878845 670.547791,446.489441 622.056763,487.889893
	C575.935242,527.267334 542.547485,576.389954 515.617249,630.224304
	C503.522736,654.401550 493.455566,679.406860 485.323486,705.190430
	C484.883942,706.584106 484.669861,708.114441 482.494354,709.824097
	C473.473145,679.575684 474.731903,649.453674 479.004578,619.324463
	C483.310120,588.963562 492.493622,560.106689 508.039978,533.311462
	C487.996063,550.805786 469.880737,570.036072 451.335327,589.333862
M663.751099,362.222900
	C662.127563,362.366272 660.201477,361.414886 658.729919,363.613251
	C664.390259,366.908356 671.067017,366.956909 676.293884,370.299500
	C673.472595,383.750580 676.622681,391.707703 685.650635,394.473633
	C695.513794,397.495392 701.893250,392.713928 707.522278,377.668274
	C710.638916,377.668274 713.990051,377.668274 717.614014,377.668274
	C701.636902,365.383911 683.300842,363.189301 663.751099,362.222900
M730.664062,393.143616
	C743.413025,386.844269 756.105164,380.446930 767.567932,371.919678
	C731.770813,378.331116 702.504700,397.984100 673.385132,417.961517
	C692.530640,410.409882 711.416138,402.295776 730.664062,393.143616
z"></path>
</svg></svg></g></g><defs><clipPath id="SvgjsClipPath1033"><rect width="1000" height="1000" x="0" y="0" rx="350" ry="350"></rect></clipPath></defs></svg>